<svg width="526" height="324" viewBox="0 0 526 324" fill="none" xmlns="http://www.w3.org/2000/svg">
<path d="M50.2239 141.909C134.431 156.433 85.0585 -4.1752 199.773 63.9976C245.393 91.1087 311.081 58.3004 373.988 76.2327C431.76 92.7012 417.529 146.738 411.939 164.418C400.647 200.132 456.884 185.888 489.481 201.232C540.613 225.302 535.227 322.554 486.922 322.959C438.617 323.363 54.902 321.939 54.902 321.939C54.902 321.939 33.8207 308.308 22.6279 280.214C-0.317803 222.621 -23.9249 129.121 50.2239 141.909Z" fill="#EBF2F9"/>
<path d="M398.233 112.201V88.1186H390.916V46.7094H351.687V88.1186H315.012V31.3588L274.541 16.0527V64.4453H265.311V0L224.84 13.4022V110.199H173.656V167.374H154.531V181.777H110.603V156.975H85.382V89.5783H54.2266V213.991V322.251H80.9311H85.382H110.603H124.86H147.693H154.531H173.656H191.621H224.84H235.013H255.254H265.311H274.541H295.725H310.147H315.012H351.687H390.261H390.916H398.233H429.489V112.201H398.233Z" fill="#D5E7F7"/>
<path d="M258.19 18.3027H230.889V28.2928H258.19V18.3027Z" fill="#C4D9ED"/>
<path d="M258.19 37.0703H230.889V47.0604H258.19V37.0703Z" fill="#C4D9ED"/>
<path d="M258.19 53.9551H230.889V63.9451H258.19V53.9551Z" fill="#C4D9ED"/>
<path d="M85.959 134.984H54.2266V150.405H85.959V134.984Z" fill="#C4D9ED"/>
<path d="M85.6559 182.318H54.2266V197.738H85.6559V182.318Z" fill="#C4D9ED"/>
<path d="M85.6559 205.612H54.2266V221.032H85.6559V205.612Z" fill="#C4D9ED"/>
<path d="M85.1442 229.983H53.7148V245.403H85.1442V229.983Z" fill="#C4D9ED"/>
<path d="M85.1442 253.85H53.7148V269.27H85.1442V253.85Z" fill="#C4D9ED"/>
<path d="M85.1442 278.22H53.7148V293.641H85.1442V278.22Z" fill="#C4D9ED"/>
<path d="M308.585 53.9548H279.87V63.9449H308.585V53.9548Z" fill="#C4D9ED"/>
<path d="M308.585 37.2227H279.87V47.2127H308.585V37.2227Z" fill="#C4D9ED"/>
<path d="M308.585 70.3262H230.193V80.3164H308.585V70.3262Z" fill="#C4D9ED"/>
<path d="M308.585 85.3474H230.193V95.3375H308.585V85.3474Z" fill="#C4D9ED"/>
<path d="M308.585 100.267H230.193V109.875H308.585V100.267Z" fill="#C4D9ED"/>
<path d="M85.6559 159.023H54.2266V174.444H85.6559V159.023Z" fill="#C4D9ED"/>
<path d="M188.355 119.57H181.494V129.232H188.355V119.57Z" fill="#C4D9ED"/>
<path d="M201.185 119.57H194.324V129.232H201.185V119.57Z" fill="#C4D9ED"/>
<path d="M213.727 119.57H206.866V129.232H213.727V119.57Z" fill="#C4D9ED"/>
<path d="M225.62 119.57H218.759V129.232H225.62V119.57Z" fill="#C4D9ED"/>
<path d="M237.74 119.57H230.879V129.232H237.74V119.57Z" fill="#C4D9ED"/>
<path d="M250 119.57H243.139V129.232H250V119.57Z" fill="#C4D9ED"/>
<path d="M262.829 119.57H255.969V129.232H262.829V119.57Z" fill="#C4D9ED"/>
<path d="M275.373 119.57H268.512V129.232H275.373V119.57Z" fill="#C4D9ED"/>
<path d="M287.265 119.57H280.404V129.232H287.265V119.57Z" fill="#C4D9ED"/>
<path d="M299.385 119.57H292.524V129.232H299.385V119.57Z" fill="#C4D9ED"/>
<path d="M312.016 119.57H305.155V129.232H312.016V119.57Z" fill="#C4D9ED"/>
<path d="M324.846 119.57H317.985V129.232H324.846V119.57Z" fill="#C4D9ED"/>
<path d="M337.388 119.57H330.527V129.232H337.388V119.57Z" fill="#C4D9ED"/>
<path d="M349.281 119.57H342.42V129.232H349.281V119.57Z" fill="#C4D9ED"/>
<path d="M361.402 119.57H354.541V129.232H361.402V119.57Z" fill="#C4D9ED"/>
<path d="M373.661 119.57H366.8V129.232H373.661V119.57Z" fill="#C4D9ED"/>
<path d="M386.49 119.57H379.63V129.232H386.49V119.57Z" fill="#C4D9ED"/>
<path d="M399.033 119.57H392.173V129.232H399.033V119.57Z" fill="#C4D9ED"/>
<path d="M410.926 119.57H404.065V129.232H410.926V119.57Z" fill="#C4D9ED"/>
<path d="M423.046 119.57H416.186V129.232H423.046V119.57Z" fill="#C4D9ED"/>
<path d="M188.355 136.621H181.494V146.284H188.355V136.621Z" fill="#C4D9ED"/>
<path d="M201.185 136.621H194.324V146.284H201.185V136.621Z" fill="#C4D9ED"/>
<path d="M213.727 136.621H206.866V146.284H213.727V136.621Z" fill="#C4D9ED"/>
<path d="M225.62 136.621H218.759V146.284H225.62V136.621Z" fill="#C4D9ED"/>
<path d="M237.74 136.621H230.879V146.284H237.74V136.621Z" fill="#C4D9ED"/>
<path d="M250 136.621H243.139V146.284H250V136.621Z" fill="#C4D9ED"/>
<path d="M262.829 136.621H255.969V146.284H262.829V136.621Z" fill="#C4D9ED"/>
<path d="M275.373 136.621H268.512V146.284H275.373V136.621Z" fill="#C4D9ED"/>
<path d="M287.265 136.621H280.404V146.284H287.265V136.621Z" fill="#C4D9ED"/>
<path d="M299.385 136.621H292.524V146.284H299.385V136.621Z" fill="#C4D9ED"/>
<path d="M312.016 136.621H305.155V146.284H312.016V136.621Z" fill="#C4D9ED"/>
<path d="M324.846 136.621H317.985V146.284H324.846V136.621Z" fill="#C4D9ED"/>
<path d="M337.388 136.621H330.527V146.284H337.388V136.621Z" fill="#C4D9ED"/>
<path d="M349.281 136.621H342.42V146.284H349.281V136.621Z" fill="#C4D9ED"/>
<path d="M361.402 136.621H354.541V146.284H361.402V136.621Z" fill="#C4D9ED"/>
<path d="M373.661 136.621H366.8V146.284H373.661V136.621Z" fill="#C4D9ED"/>
<path d="M386.49 136.621H379.63V146.284H386.49V136.621Z" fill="#C4D9ED"/>
<path d="M399.033 136.621H392.173V146.284H399.033V136.621Z" fill="#C4D9ED"/>
<path d="M410.926 136.621H404.065V146.284H410.926V136.621Z" fill="#C4D9ED"/>
<path d="M423.046 136.621H416.186V146.284H423.046V136.621Z" fill="#C4D9ED"/>
<path d="M188.355 153.411H181.494V163.074H188.355V153.411Z" fill="#C4D9ED"/>
<path d="M201.185 153.411H194.324V163.074H201.185V153.411Z" fill="#C4D9ED"/>
<path d="M213.727 153.411H206.866V163.074H213.727V153.411Z" fill="#C4D9ED"/>
<path d="M225.62 153.411H218.759V163.074H225.62V153.411Z" fill="#C4D9ED"/>
<path d="M237.74 153.411H230.879V163.074H237.74V153.411Z" fill="#C4D9ED"/>
<path d="M250 153.411H243.139V163.074H250V153.411Z" fill="#C4D9ED"/>
<path d="M262.829 153.411H255.969V163.074H262.829V153.411Z" fill="#C4D9ED"/>
<path d="M275.373 153.411H268.512V163.074H275.373V153.411Z" fill="#C4D9ED"/>
<path d="M287.265 153.411H280.404V163.074H287.265V153.411Z" fill="#C4D9ED"/>
<path d="M299.385 153.411H292.524V163.074H299.385V153.411Z" fill="#C4D9ED"/>
<path d="M312.016 153.411H305.155V163.074H312.016V153.411Z" fill="#C4D9ED"/>
<path d="M324.846 153.411H317.985V163.074H324.846V153.411Z" fill="#C4D9ED"/>
<path d="M337.388 153.411H330.527V163.074H337.388V153.411Z" fill="#C4D9ED"/>
<path d="M349.281 153.411H342.42V163.074H349.281V153.411Z" fill="#C4D9ED"/>
<path d="M361.402 153.411H354.541V163.074H361.402V153.411Z" fill="#C4D9ED"/>
<path d="M373.661 153.411H366.8V163.074H373.661V153.411Z" fill="#C4D9ED"/>
<path d="M386.49 153.411H379.63V163.074H386.49V153.411Z" fill="#C4D9ED"/>
<path d="M399.033 153.411H392.173V163.074H399.033V153.411Z" fill="#C4D9ED"/>
<path d="M410.926 153.411H404.065V163.074H410.926V153.411Z" fill="#C4D9ED"/>
<path d="M423.046 153.411H416.186V163.074H423.046V153.411Z" fill="#C4D9ED"/>
<path d="M188.355 171.25H181.494V180.913H188.355V171.25Z" fill="#C4D9ED"/>
<path d="M201.185 171.25H194.324V180.913H201.185V171.25Z" fill="#C4D9ED"/>
<path d="M213.727 171.25H206.866V180.913H213.727V171.25Z" fill="#C4D9ED"/>
<path d="M225.62 171.25H218.759V180.913H225.62V171.25Z" fill="#C4D9ED"/>
<path d="M237.74 171.25H230.879V180.913H237.74V171.25Z" fill="#C4D9ED"/>
<path d="M250 171.25H243.139V180.913H250V171.25Z" fill="#C4D9ED"/>
<path d="M262.829 171.25H255.969V180.913H262.829V171.25Z" fill="#C4D9ED"/>
<path d="M275.373 171.25H268.512V180.913H275.373V171.25Z" fill="#C4D9ED"/>
<path d="M287.265 171.25H280.404V180.913H287.265V171.25Z" fill="#C4D9ED"/>
<path d="M299.385 171.25H292.524V180.913H299.385V171.25Z" fill="#C4D9ED"/>
<path d="M312.016 171.25H305.155V180.913H312.016V171.25Z" fill="#C4D9ED"/>
<path d="M324.846 171.25H317.985V180.913H324.846V171.25Z" fill="#C4D9ED"/>
<path d="M337.388 171.25H330.527V180.913H337.388V171.25Z" fill="#C4D9ED"/>
<path d="M349.281 171.25H342.42V180.913H349.281V171.25Z" fill="#C4D9ED"/>
<path d="M361.402 171.25H354.541V180.913H361.402V171.25Z" fill="#C4D9ED"/>
<path d="M373.661 171.25H366.8V180.913H373.661V171.25Z" fill="#C4D9ED"/>
<path d="M386.49 171.25H379.63V180.913H386.49V171.25Z" fill="#C4D9ED"/>
<path d="M399.033 171.25H392.173V180.913H399.033V171.25Z" fill="#C4D9ED"/>
<path d="M410.926 171.25H404.065V180.913H410.926V171.25Z" fill="#C4D9ED"/>
<path d="M423.046 171.25H416.186V180.913H423.046V171.25Z" fill="#C4D9ED"/>
<path d="M188.355 188.302H181.494V197.964H188.355V188.302Z" fill="#C4D9ED"/>
<path d="M201.185 188.302H194.324V197.964H201.185V188.302Z" fill="#C4D9ED"/>
<path d="M213.727 188.302H206.866V197.964H213.727V188.302Z" fill="#C4D9ED"/>
<path d="M225.62 188.302H218.759V197.964H225.62V188.302Z" fill="#C4D9ED"/>
<path d="M237.74 188.302H230.879V197.964H237.74V188.302Z" fill="#C4D9ED"/>
<path d="M250 188.302H243.139V197.964H250V188.302Z" fill="#C4D9ED"/>
<path d="M262.829 188.302H255.969V197.964H262.829V188.302Z" fill="#C4D9ED"/>
<path d="M275.373 188.302H268.512V197.964H275.373V188.302Z" fill="#C4D9ED"/>
<path d="M287.265 188.302H280.404V197.964H287.265V188.302Z" fill="#C4D9ED"/>
<path d="M299.385 188.302H292.524V197.964H299.385V188.302Z" fill="#C4D9ED"/>
<path d="M312.016 188.302H305.155V197.964H312.016V188.302Z" fill="#C4D9ED"/>
<path d="M324.846 188.302H317.985V197.964H324.846V188.302Z" fill="#C4D9ED"/>
<path d="M337.388 188.302H330.527V197.964H337.388V188.302Z" fill="#C4D9ED"/>
<path d="M349.281 188.302H342.42V197.964H349.281V188.302Z" fill="#C4D9ED"/>
<path d="M361.402 188.302H354.541V197.964H361.402V188.302Z" fill="#C4D9ED"/>
<path d="M373.661 188.302H366.8V197.964H373.661V188.302Z" fill="#C4D9ED"/>
<path d="M386.49 188.302H379.63V197.964H386.49V188.302Z" fill="#C4D9ED"/>
<path d="M410.926 188.302H404.065V197.964H410.926V188.302Z" fill="#C4D9ED"/>
<path d="M399.034 188.302H392.173V197.964H399.034V188.302Z" fill="#C4D9ED"/>
<path d="M423.046 188.302H416.186V197.964H423.046V188.302Z" fill="#C4D9ED"/>
<path d="M188.355 205.092H181.494V214.754H188.355V205.092Z" fill="#C4D9ED"/>
<path d="M201.185 205.092H194.324V214.754H201.185V205.092Z" fill="#C4D9ED"/>
<path d="M213.727 205.092H206.866V214.754H213.727V205.092Z" fill="#C4D9ED"/>
<path d="M225.62 205.092H218.759V214.754H225.62V205.092Z" fill="#C4D9ED"/>
<path d="M237.74 205.092H230.879V214.754H237.74V205.092Z" fill="#C4D9ED"/>
<path d="M250 205.092H243.139V214.754H250V205.092Z" fill="#C4D9ED"/>
<path d="M262.829 205.092H255.969V214.754H262.829V205.092Z" fill="#C4D9ED"/>
<path d="M275.373 205.092H268.512V214.754H275.373V205.092Z" fill="#C4D9ED"/>
<path d="M287.265 205.092H280.404V214.754H287.265V205.092Z" fill="#C4D9ED"/>
<path d="M299.385 205.092H292.524V214.754H299.385V205.092Z" fill="#C4D9ED"/>
<path d="M312.016 205.092H305.155V214.754H312.016V205.092Z" fill="#C4D9ED"/>
<path d="M324.846 205.092H317.985V214.754H324.846V205.092Z" fill="#C4D9ED"/>
<path d="M337.388 205.092H330.527V214.754H337.388V205.092Z" fill="#C4D9ED"/>
<path d="M349.281 205.092H342.42V214.754H349.281V205.092Z" fill="#C4D9ED"/>
<path d="M361.402 205.092H354.541V214.754H361.402V205.092Z" fill="#C4D9ED"/>
<path d="M373.661 205.092H366.8V214.754H373.661V205.092Z" fill="#C4D9ED"/>
<path d="M386.49 205.092H379.63V214.754H386.49V205.092Z" fill="#C4D9ED"/>
<path d="M410.926 205.092H404.065V214.754H410.926V205.092Z" fill="#C4D9ED"/>
<path d="M423.046 205.092H416.186V214.754H423.046V205.092Z" fill="#C4D9ED"/>
<path d="M121.764 120.806V100.707H122.59V120.806H133.91V145.609H110.6V120.806H121.764Z" fill="#C4D9ED"/>
<path d="M54.2266 105.027V89.6067H60.785V82.8958H61.6114V89.6067H85.5226H85.959H90.482V82.8958H91.3086V89.6067H97.1108V156.996H85.5226V127.96H54.2266V112.54H85.5226V105.027H54.2266Z" fill="#C4D9ED"/>
<path d="M474.69 169.612H473.072V190.291H474.69V169.612Z" fill="#D5E7F7"/>
<path d="M102.27 321.824H259.399V229.983H102.27V321.824Z" fill="#C4D9ED"/>
<path d="M244.858 252.179H253.235V239.397H244.858V252.179Z" fill="#D5E7F7"/>
<path d="M230.085 252.179H238.463V239.397H230.085V252.179Z" fill="#D5E7F7"/>
<path d="M215.213 252.179H223.591V239.397H215.213V252.179Z" fill="#D5E7F7"/>
<path d="M200.441 252.179H208.818V239.397H200.441V252.179Z" fill="#D5E7F7"/>
<path d="M185.226 252.179H193.604V239.397H185.226V252.179Z" fill="#D5E7F7"/>
<path d="M170.452 252.179H178.83V239.397H170.452V252.179Z" fill="#D5E7F7"/>
<path d="M155.581 252.179H163.959V239.397H155.581V252.179Z" fill="#D5E7F7"/>
<path d="M140.808 252.179H149.186V239.397H140.808V252.179Z" fill="#D5E7F7"/>
<path d="M125.315 252.179H133.692V239.397H125.315V252.179Z" fill="#D5E7F7"/>
<path d="M110.541 252.179H118.919V239.397H110.541V252.179Z" fill="#D5E7F7"/>
<path d="M244.858 271.08H253.235V258.299H244.858V271.08Z" fill="#D5E7F7"/>
<path d="M230.085 271.08H238.463V258.299H230.085V271.08Z" fill="#D5E7F7"/>
<path d="M215.213 271.08H223.591V258.299H215.213V271.08Z" fill="#D5E7F7"/>
<path d="M200.441 271.08H208.818V258.299H200.441V271.08Z" fill="#D5E7F7"/>
<path d="M185.226 271.08H193.604V258.299H185.226V271.08Z" fill="#D5E7F7"/>
<path d="M170.452 271.08H178.83V258.299H170.452V271.08Z" fill="#D5E7F7"/>
<path d="M155.581 271.08H163.959V258.299H155.581V271.08Z" fill="#D5E7F7"/>
<path d="M140.808 271.08H149.186V258.299H140.808V271.08Z" fill="#D5E7F7"/>
<path d="M125.315 271.08H133.692V258.299H125.315V271.08Z" fill="#D5E7F7"/>
<path d="M110.541 271.08H118.919V258.299H110.541V271.08Z" fill="#D5E7F7"/>
<path d="M244.858 291.385H253.235V278.604H244.858V291.385Z" fill="#D5E7F7"/>
<path d="M230.085 291.385H238.463V278.604H230.085V291.385Z" fill="#D5E7F7"/>
<path d="M215.213 291.385H223.591V278.604H215.213V291.385Z" fill="#D5E7F7"/>
<path d="M200.441 291.385H208.818V278.604H200.441V291.385Z" fill="#D5E7F7"/>
<path d="M185.226 291.385H193.604V278.604H185.226V291.385Z" fill="#D5E7F7"/>
<path d="M170.452 291.385H178.83V278.604H170.452V291.385Z" fill="#D5E7F7"/>
<path d="M155.581 291.385H163.959V278.604H155.581V291.385Z" fill="#D5E7F7"/>
<path d="M140.808 291.385H149.186V278.604H140.808V291.385Z" fill="#D5E7F7"/>
<path d="M125.315 291.385H133.692V278.604H125.315V291.385Z" fill="#D5E7F7"/>
<path d="M110.541 291.385H118.919V278.604H110.541V291.385Z" fill="#D5E7F7"/>
<path d="M244.858 310.287H253.235V297.505H244.858V310.287Z" fill="#D5E7F7"/>
<path d="M230.085 310.287H238.463V297.505H230.085V310.287Z" fill="#D5E7F7"/>
<path d="M215.213 310.287H223.591V297.505H215.213V310.287Z" fill="#D5E7F7"/>
<path d="M200.441 310.287H208.818V297.505H200.441V310.287Z" fill="#D5E7F7"/>
<path d="M185.226 310.287H193.604V297.505H185.226V310.287Z" fill="#D5E7F7"/>
<path d="M170.452 310.287H178.83V297.505H170.452V310.287Z" fill="#D5E7F7"/>
<path d="M155.581 310.287H163.959V297.505H155.581V310.287Z" fill="#D5E7F7"/>
<path d="M140.808 310.287H149.186V297.505H140.808V310.287Z" fill="#D5E7F7"/>
<path d="M125.315 310.287H133.692V297.505H125.315V310.287Z" fill="#D5E7F7"/>
<path d="M110.541 310.287H118.919V297.505H110.541V310.287Z" fill="#D5E7F7"/>
<path d="M156.4 234.177H123.611V205.612L156.4 218.156V234.177Z" fill="#C4D9ED"/>
<path d="M318.002 321.824H393.038V240.264L318.002 266.22V321.824Z" fill="#C4D9ED"/>
<path d="M319.984 271.44H391.057V268.92H319.984V271.44Z" fill="#D5E7F7"/>
<path d="M319.984 279.541H391.057V277.021H319.984V279.541Z" fill="#D5E7F7"/>
<path d="M319.984 287.642H391.057V285.122H319.984V287.642Z" fill="#D5E7F7"/>
<path d="M319.984 295.743H391.057V293.222H319.984V295.743Z" fill="#D5E7F7"/>
<path d="M319.984 303.844H391.057V301.323H319.984V303.844Z" fill="#D5E7F7"/>
<path d="M319.984 311.944H391.057V309.424H319.984V311.944Z" fill="#D5E7F7"/>
<path d="M117.306 229.983H123.611V205.612H117.306V229.983Z" fill="#C4D9ED"/>
<path d="M143.33 226.211V217.84H130.539V226.211H143.33Z" fill="#D5E7F7"/>
<path d="M381.979 86.968H386.327V50.1095H381.979V86.968Z" fill="#C4D9ED"/>
<path d="M373.331 86.968H377.68V50.1095H373.331V86.968Z" fill="#C4D9ED"/>
<path d="M364.801 86.968H369.149V50.1095H364.801V86.968Z" fill="#C4D9ED"/>
<path d="M355.972 86.968H360.32V50.1095H355.972V86.968Z" fill="#C4D9ED"/>
<path d="M470.776 266.594H113.329V294.483H470.776V266.594Z" fill="#1C2948"/>
<path d="M431.465 322.214C444.303 322.214 454.71 311.815 454.71 298.987C454.71 286.16 444.303 275.761 431.465 275.761C418.628 275.761 408.221 286.16 408.221 298.987C408.221 311.815 418.628 322.214 431.465 322.214Z" fill="#2D3A62"/>
<path d="M431.465 284.597C423.511 284.597 417.063 291.04 417.063 298.987C417.063 306.935 423.511 313.378 431.465 313.378C439.419 313.378 445.867 306.935 445.867 298.987C445.867 291.04 439.419 284.597 431.465 284.597ZM433.438 286.174C436.574 286.652 439.339 288.255 441.313 290.555L436.322 293.635C435.508 292.897 434.525 292.344 433.438 292.037V286.174ZM429.492 286.174V292.037C428.406 292.344 427.422 292.897 426.609 293.635L421.617 290.555C423.592 288.255 426.356 286.652 429.492 286.174ZM419.504 304.013C418.853 302.468 418.493 300.77 418.493 298.988C418.493 297.182 418.863 295.463 419.531 293.901L424.52 296.98C424.335 297.617 424.234 298.291 424.234 298.988C424.234 299.661 424.328 300.312 424.501 300.93L419.504 304.013ZM429.492 311.801C426.333 311.319 423.551 309.697 421.574 307.37L426.559 304.293C427.383 305.054 428.383 305.624 429.492 305.938L429.492 311.801ZM428.196 298.987C428.196 297.183 429.66 295.72 431.465 295.72C433.271 295.72 434.735 297.183 434.735 298.987C434.735 300.792 433.271 302.255 431.465 302.255C429.66 302.255 428.196 300.792 428.196 298.987ZM433.438 311.801V305.938C434.547 305.624 435.548 305.054 436.371 304.293L441.356 307.37C439.38 309.697 436.597 311.319 433.438 311.801ZM438.429 300.93C438.602 300.312 438.696 299.661 438.696 298.987C438.696 298.29 438.595 297.617 438.411 296.979L443.4 293.9C444.067 295.462 444.438 297.181 444.438 298.987C444.438 300.769 444.077 302.468 443.426 304.013L438.429 300.93Z" fill="#98BDF4"/>
<path d="M142.239 322.214C155.076 322.214 165.483 311.815 165.483 298.987C165.483 286.16 155.076 275.761 142.239 275.761C129.401 275.761 118.994 286.16 118.994 298.987C118.994 311.815 129.401 322.214 142.239 322.214Z" fill="#2D3A62"/>
<path d="M142.239 284.597C134.285 284.597 127.837 291.04 127.837 298.987C127.837 306.935 134.285 313.378 142.239 313.378C150.193 313.378 156.64 306.935 156.64 298.987C156.64 291.04 150.193 284.597 142.239 284.597ZM144.211 286.174C147.348 286.652 150.112 288.255 152.086 290.555L147.095 293.635C146.281 292.897 145.298 292.344 144.211 292.037V286.174ZM140.266 286.174V292.037C139.179 292.344 138.196 292.897 137.382 293.635L132.391 290.555C134.365 288.255 137.13 286.652 140.266 286.174ZM130.278 304.013C129.626 302.468 129.266 300.77 129.266 298.987C129.266 297.182 129.637 295.462 130.304 293.901L135.293 296.98C135.109 297.617 135.008 298.29 135.008 298.988C135.008 299.661 135.102 300.312 135.274 300.93L130.278 304.013ZM140.266 311.801C137.106 311.319 134.324 309.697 132.347 307.37L137.332 304.293C138.156 305.054 139.157 305.624 140.266 305.938L140.266 311.801ZM138.969 298.987C138.969 297.183 140.433 295.72 142.239 295.72C144.044 295.72 145.508 297.183 145.508 298.987C145.508 300.792 144.044 302.255 142.239 302.255C140.433 302.255 138.969 300.792 138.969 298.987ZM144.211 311.801V305.938C145.32 305.624 146.321 305.054 147.144 304.293L152.13 307.37C150.153 309.697 147.371 311.319 144.211 311.801ZM149.203 300.93C149.375 300.312 149.469 299.661 149.469 298.987C149.469 298.29 149.369 297.617 149.184 296.979L154.173 293.9C154.841 295.462 155.211 297.181 155.211 298.987C155.211 300.769 154.851 302.468 154.2 304.013L149.203 300.93Z" fill="#98BDF4"/>
<path d="M264.027 151.834H60.7178V145.573C60.7178 142.751 63.008 140.462 65.8328 140.462H253.393C255.061 140.462 256.625 141.275 257.582 142.641L264.027 151.834Z" fill="#A8D29F"/>
<path d="M60.7178 148.112V151.834H264.027L261.418 148.112H60.7178Z" fill="#82B378"/>
<path d="M476.119 151.834H48.098C40.841 151.834 34.958 157.712 34.958 164.964V284.503C34.958 287.725 37.2586 290.488 40.4293 291.075L76.455 297.739H116.477C116.477 283.656 127.903 272.239 141.997 272.239C156.091 272.239 167.517 283.656 167.517 297.739H405.704C405.704 283.656 417.13 272.239 431.224 272.239C445.318 272.239 456.744 283.656 456.744 297.739H482.748C486.344 297.739 489.259 294.826 489.259 291.232V164.964C489.259 157.712 483.376 151.834 476.119 151.834Z" fill="#A8D29F"/>
<path d="M452.293 283.348C455.1 287.444 456.744 292.399 456.744 297.739H482.748C486.344 297.739 489.259 294.825 489.259 291.232C489.259 286.878 485.727 283.348 481.369 283.348H452.293Z" fill="#82B378"/>
<path d="M34.958 283.348V284.503C34.958 287.725 37.2586 290.488 40.4293 291.075L76.455 297.739H116.477C116.477 292.4 118.121 287.444 120.928 283.348L34.958 283.348Z" fill="#82B378"/>
<path d="M163.066 283.348C165.874 287.444 167.517 292.399 167.517 297.739H405.704C405.704 292.399 407.347 287.444 410.155 283.348H163.066Z" fill="#82B378"/>
<path d="M38.0335 248.271H32.2207V279.012H38.0335V248.271Z" fill="#B64C41"/>
<path d="M38.0335 239.935H32.2207V245.743H38.0335V239.935Z" fill="#F1A34F"/>
<path d="M489.259 246.712H486.264V274.512H489.259V246.712Z" fill="#B64C41"/>
<path d="M191.118 233.55H314.322C316.671 233.55 318.575 231.648 318.575 229.3V173.612C318.575 171.265 316.671 169.362 314.322 169.362H191.118C188.768 169.362 186.864 171.265 186.864 173.612V229.3C186.864 231.648 188.768 233.55 191.118 233.55Z" fill="#163560"/>
<path d="M396.032 233.55H441.373C443.722 233.55 445.626 231.648 445.626 229.3V173.612C445.626 171.265 443.722 169.362 441.373 169.362H396.032C393.683 169.362 391.778 171.265 391.778 173.612V229.3C391.778 231.648 393.683 233.55 396.032 233.55Z" fill="#163560"/>
<path d="M478.23 233.55H489.26V173.612C489.26 171.265 487.356 169.362 485.007 169.362H454.115C451.766 169.362 449.861 171.265 449.861 173.612V205.204C449.861 220.859 462.562 233.55 478.23 233.55Z" fill="#163560"/>
<path d="M191.118 233.55H314.322C316.671 233.55 318.575 231.648 318.575 229.3V173.612C318.575 171.265 316.671 169.362 314.322 169.362H191.118C188.768 169.362 186.864 171.265 186.864 173.612V229.3C186.864 231.648 188.768 233.55 191.118 233.55Z" fill="#98BDF4"/>
<path d="M396.032 233.55H441.373C443.722 233.55 445.626 231.648 445.626 229.3V173.612C445.626 171.265 443.722 169.362 441.373 169.362H396.032C393.683 169.362 391.778 171.265 391.778 173.612V229.3C391.778 231.648 393.683 233.55 396.032 233.55Z" fill="#98BDF4"/>
<path d="M478.23 233.55H489.26V173.612C489.26 171.265 487.356 169.362 485.007 169.362H454.115C451.766 169.362 449.861 171.265 449.861 173.612V205.204C449.861 220.859 462.562 233.55 478.23 233.55Z" fill="#98BDF4"/>
<path d="M50.4164 233.55H173.621C175.97 233.55 177.874 231.648 177.874 229.3V173.612C177.874 171.265 175.97 169.362 173.621 169.362H50.4164C48.0673 169.362 46.1631 171.265 46.1631 173.612V229.3C46.1631 231.648 48.0673 233.55 50.4164 233.55Z" fill="#163560"/>
<path d="M50.4164 233.55H173.621C175.97 233.55 177.874 231.648 177.874 229.3V173.612C177.874 171.265 175.97 169.362 173.621 169.362H50.4164C48.0673 169.362 46.1631 171.265 46.1631 173.612V229.3C46.1631 231.648 48.0673 233.55 50.4164 233.55Z" fill="#98BDF4"/>
<path d="M383.972 169.362H352.147H348.381H326.977C324.628 169.362 322.724 171.265 322.724 173.612V297.738H348.381H352.147H388.225V173.612C388.225 171.265 386.321 169.362 383.972 169.362Z" fill="#98BDF4"/>
<mask id="mask0_947_910" style="mask-type:luminance" maskUnits="userSpaceOnUse" x="186" y="169" width="133" height="65">
<path d="M191.118 233.55H314.322C316.671 233.55 318.575 231.648 318.575 229.3V173.612C318.575 171.265 316.671 169.362 314.322 169.362H191.118C188.768 169.362 186.864 171.265 186.864 173.612V229.3C186.864 231.648 188.768 233.55 191.118 233.55Z" fill="white"/>
</mask>
<g mask="url(#mask0_947_910)">
<path d="M189.7 268.71H171.519L251.584 127.747H269.765L189.7 268.71Z" fill="#D5E7F7"/>
</g>
<mask id="mask1_947_910" style="mask-type:luminance" maskUnits="userSpaceOnUse" x="186" y="169" width="133" height="65">
<path d="M191.118 233.55H314.322C316.671 233.55 318.575 231.648 318.575 229.3V173.612C318.575 171.265 316.671 169.362 314.322 169.362H191.118C188.768 169.362 186.864 171.265 186.864 173.612V229.3C186.864 231.648 188.768 233.55 191.118 233.55Z" fill="white"/>
</mask>
<g mask="url(#mask1_947_910)">
<path d="M219.357 271.938H201.175L281.24 130.975H299.422L219.357 271.938Z" fill="#D5E7F7"/>
</g>
<mask id="mask2_947_910" style="mask-type:luminance" maskUnits="userSpaceOnUse" x="186" y="169" width="133" height="65">
<path d="M191.118 233.55H314.322C316.671 233.55 318.575 231.648 318.575 229.3V173.612C318.575 171.265 316.671 169.362 314.322 169.362H191.118C188.768 169.362 186.864 171.265 186.864 173.612V229.3C186.864 231.648 188.768 233.55 191.118 233.55Z" fill="white"/>
</mask>
<g mask="url(#mask2_947_910)">
<path d="M272.842 274.807H254.66L334.725 133.844H352.907L272.842 274.807Z" fill="#D5E7F7"/>
</g>
<mask id="mask3_947_910" style="mask-type:luminance" maskUnits="userSpaceOnUse" x="186" y="169" width="133" height="65">
<path d="M191.118 233.55H314.322C316.671 233.55 318.575 231.648 318.575 229.3V173.612C318.575 171.265 316.671 169.362 314.322 169.362H191.118C188.768 169.362 186.864 171.265 186.864 173.612V229.3C186.864 231.648 188.768 233.55 191.118 233.55Z" fill="white"/>
</mask>
<g mask="url(#mask3_947_910)">
<path d="M230.638 274.512H225.844L305.909 133.549H310.703L230.638 274.512Z" fill="#D5E7F7"/>
</g>
<mask id="mask4_947_910" style="mask-type:luminance" maskUnits="userSpaceOnUse" x="391" y="169" width="55" height="65">
<path d="M396.032 233.55H441.373C443.722 233.55 445.626 231.648 445.626 229.3V173.612C445.626 171.265 443.722 169.362 441.373 169.362H396.032C393.683 169.362 391.778 171.265 391.778 173.612V229.3C391.778 231.648 393.683 233.55 396.032 233.55Z" fill="white"/>
</mask>
<g mask="url(#mask4_947_910)">
<path d="M397.913 261.449H379.731L459.796 120.486H477.979L397.913 261.449Z" fill="#D5E7F7"/>
</g>
<mask id="mask5_947_910" style="mask-type:luminance" maskUnits="userSpaceOnUse" x="391" y="169" width="55" height="65">
<path d="M396.032 233.55H441.373C443.722 233.55 445.626 231.648 445.626 229.3V173.612C445.626 171.265 443.722 169.362 441.373 169.362H396.032C393.683 169.362 391.778 171.265 391.778 173.612V229.3C391.778 231.648 393.683 233.55 396.032 233.55Z" fill="white"/>
</mask>
<g mask="url(#mask5_947_910)">
<path d="M409.195 264.023H404.4L484.465 123.061H489.259L409.195 264.023Z" fill="#D5E7F7"/>
</g>
<mask id="mask6_947_910" style="mask-type:luminance" maskUnits="userSpaceOnUse" x="449" y="169" width="41" height="65">
<path d="M478.23 233.55H489.26V173.612C489.26 171.265 487.356 169.362 485.007 169.362H454.115C451.766 169.362 449.861 171.265 449.861 173.612V205.204C449.861 220.859 462.562 233.55 478.23 233.55Z" fill="white"/>
</mask>
<g mask="url(#mask6_947_910)">
<path d="M441.397 258.875H432.306L512.371 117.912H521.462L441.397 258.875Z" fill="#D5E7F7"/>
</g>
<mask id="mask7_947_910" style="mask-type:luminance" maskUnits="userSpaceOnUse" x="449" y="169" width="41" height="65">
<path d="M478.23 233.55H489.26V173.612C489.26 171.265 487.356 169.362 485.007 169.362H454.115C451.766 169.362 449.861 171.265 449.861 173.612V205.204C449.861 220.859 462.562 233.55 478.23 233.55Z" fill="white"/>
</mask>
<g mask="url(#mask7_947_910)">
<path d="M452.678 261.449H447.884L527.949 120.486H532.743L452.678 261.449Z" fill="#D5E7F7"/>
</g>
<mask id="mask8_947_910" style="mask-type:luminance" maskUnits="userSpaceOnUse" x="46" y="169" width="132" height="65">
<path d="M50.4164 233.55H173.621C175.97 233.55 177.874 231.648 177.874 229.3V173.612C177.874 171.265 175.97 169.362 173.621 169.362H50.4164C48.0673 169.362 46.1631 171.265 46.1631 173.612V229.3C46.1631 231.648 48.0673 233.55 50.4164 233.55Z" fill="white"/>
</mask>
<g mask="url(#mask8_947_910)">
<path d="M47.0013 267.223H28.8193L108.884 126.26H127.066L47.0013 267.223Z" fill="#D5E7F7"/>
</g>
<mask id="mask9_947_910" style="mask-type:luminance" maskUnits="userSpaceOnUse" x="46" y="169" width="132" height="65">
<path d="M50.4164 233.55H173.621C175.97 233.55 177.874 231.648 177.874 229.3V173.612C177.874 171.265 175.97 169.362 173.621 169.362H50.4164C48.0673 169.362 46.1631 171.265 46.1631 173.612V229.3C46.1631 231.648 48.0673 233.55 50.4164 233.55Z" fill="white"/>
</mask>
<g mask="url(#mask9_947_910)">
<path d="M109.739 267.223H91.5566L171.622 126.26H189.804L109.739 267.223Z" fill="#D5E7F7"/>
</g>
<mask id="mask10_947_910" style="mask-type:luminance" maskUnits="userSpaceOnUse" x="46" y="169" width="132" height="65">
<path d="M50.4164 233.55H173.621C175.97 233.55 177.874 231.648 177.874 229.3V173.612C177.874 171.265 175.97 169.362 173.621 169.362H50.4164C48.0673 169.362 46.1631 171.265 46.1631 173.612V229.3C46.1631 231.648 48.0673 233.55 50.4164 233.55Z" fill="white"/>
</mask>
<g mask="url(#mask10_947_910)">
<path d="M57.4258 267.223H52.6387L132.704 126.26H137.491L57.4258 267.223Z" fill="#D5E7F7"/>
</g>
<mask id="mask11_947_910" style="mask-type:luminance" maskUnits="userSpaceOnUse" x="322" y="169" width="67" height="129">
<path d="M383.972 169.362H352.147H348.381H326.977C324.628 169.362 322.724 171.265 322.724 173.612V297.738H348.381H352.147H388.225V173.612C388.225 171.265 386.321 169.362 383.972 169.362Z" fill="white"/>
</mask>
<g mask="url(#mask11_947_910)">
<path d="M299.464 301.7H281.282L361.347 160.737H379.529L299.464 301.7Z" fill="#D5E7F7"/>
</g>
<mask id="mask12_947_910" style="mask-type:luminance" maskUnits="userSpaceOnUse" x="322" y="169" width="67" height="129">
<path d="M383.972 169.362H352.147H348.381H326.977C324.628 169.362 322.724 171.265 322.724 173.612V297.738H348.381H352.147H388.225V173.612C388.225 171.265 386.321 169.362 383.972 169.362Z" fill="white"/>
</mask>
<g mask="url(#mask12_947_910)">
<path d="M310.745 304.274H305.951L386.016 163.311H390.81L310.745 304.274Z" fill="#D5E7F7"/>
</g>
<mask id="mask13_947_910" style="mask-type:luminance" maskUnits="userSpaceOnUse" x="322" y="169" width="67" height="129">
<path d="M383.972 169.362H352.147H348.381H326.977C324.628 169.362 322.724 171.265 322.724 173.612V297.738H348.381H352.147H388.225V173.612C388.225 171.265 386.321 169.362 383.972 169.362Z" fill="white"/>
</mask>
<g mask="url(#mask13_947_910)">
<path d="M342.947 299.126H333.855L413.92 158.163H423.012L342.947 299.126Z" fill="#D5E7F7"/>
</g>
<path d="M357.173 169.362H353.664V297.738H357.173V169.362Z" fill="#163560"/>
<path d="M173.62 234.613H50.4163C47.4847 234.613 45.0996 232.23 45.0996 229.3V173.612C45.0996 170.683 47.4847 168.3 50.4163 168.3H173.62C176.552 168.3 178.937 170.683 178.937 173.612V229.3C178.937 232.23 176.552 234.613 173.62 234.613ZM50.4163 170.425C48.6573 170.425 47.2263 171.855 47.2263 173.612V229.3C47.2263 231.058 48.6573 232.488 50.4163 232.488H173.62C175.379 232.488 176.81 231.058 176.81 229.3V173.612C176.81 171.855 175.379 170.425 173.62 170.425H50.4163Z" fill="#163560"/>
<path d="M314.323 234.613H191.118C188.187 234.613 185.802 232.23 185.802 229.3V173.612C185.802 170.683 188.187 168.3 191.118 168.3H314.323C317.254 168.3 319.639 170.683 319.639 173.612V229.3C319.639 232.23 317.254 234.613 314.323 234.613ZM191.118 170.425C189.359 170.425 187.928 171.855 187.928 173.612V229.3C187.928 231.058 189.359 232.488 191.118 232.488H314.323C316.082 232.488 317.513 231.058 317.513 229.3V173.612C317.513 171.855 316.082 170.425 314.323 170.425H191.118Z" fill="#163560"/>
<path d="M389.288 298.801H321.66V173.612C321.66 170.683 324.045 168.3 326.977 168.3H383.971C386.903 168.3 389.288 170.683 389.288 173.612V298.801ZM323.787 296.676H387.161V173.612C387.161 171.855 385.73 170.425 383.971 170.425H326.977C325.218 170.425 323.787 171.855 323.787 173.612V296.676Z" fill="#163560"/>
<path d="M441.373 234.613H396.032C393.1 234.613 390.715 232.23 390.715 229.3V173.612C390.715 170.683 393.1 168.3 396.032 168.3H441.373C444.304 168.3 446.689 170.683 446.689 173.612V229.3C446.689 232.23 444.304 234.613 441.373 234.613ZM396.032 170.425C394.273 170.425 392.842 171.855 392.842 173.612V229.3C392.842 231.058 394.273 232.488 396.032 232.488H441.373C443.131 232.488 444.563 231.058 444.563 229.3V173.612C444.563 171.855 443.131 170.425 441.373 170.425H396.032Z" fill="#163560"/>
<path d="M488.039 234.613H478.23C462.001 234.613 448.798 221.42 448.798 205.204V173.612C448.798 170.683 451.183 168.3 454.115 168.3H485.007C487.938 168.3 490.323 170.683 490.323 173.612V232.33C490.323 233.589 489.299 234.613 488.039 234.613ZM454.115 170.425C452.356 170.425 450.925 171.855 450.925 173.612V205.204C450.925 220.248 463.174 232.488 478.23 232.488H488.039C488.126 232.488 488.197 232.417 488.197 232.331V173.613C488.197 171.855 486.766 170.425 485.007 170.425L454.115 170.425Z" fill="#163560"/>
<path d="M395.562 297.739H315.28V301.537H395.562V297.739Z" fill="#A8D29F"/>
<path d="M399.071 301.537H311.771V305.336H399.071V301.537Z" fill="#82B378"/>
<path d="M499.379 209.454C496.873 209.454 494.842 207.425 494.842 204.921V167.804C494.842 165.301 496.873 163.271 499.379 163.271C501.884 163.271 503.915 165.301 503.915 167.804V204.921C503.915 207.424 501.884 209.454 499.379 209.454Z" fill="#A8D29F"/>
<path d="M497.446 166.228H454.771C453.137 166.228 451.812 164.904 451.812 163.271C451.812 161.637 453.137 160.313 454.771 160.313H497.446C499.081 160.313 500.406 161.637 500.406 163.271C500.406 164.904 499.081 166.228 497.446 166.228Z" fill="#82B378"/>
</svg>
