<svg width="307" height="102" viewBox="0 0 307 102" fill="none" xmlns="http://www.w3.org/2000/svg">
<path fill-rule="evenodd" clip-rule="evenodd" d="M149.164 0.00488443C149.141 0.0875956 148.672 12.4684 148.691 12.4897C148.731 12.5346 164.382 13.1053 164.424 13.0633C164.475 13.0126 164.946 0.659514 164.899 0.612491C164.862 0.575054 162.035 0.437094 162.001 0.470969C161.991 0.481526 161.895 2.74381 161.788 5.49828C161.681 8.25275 161.579 10.5206 161.562 10.538C161.519 10.5801 158.218 10.4525 158.172 10.4071C158.153 10.3877 158.224 8.11725 158.33 5.36162C158.437 2.60604 158.518 0.34525 158.51 0.337672C158.503 0.330029 157.832 0.303539 157.02 0.278667L155.543 0.233457L155.545 0.421679C155.55 1.05254 155.204 9.91306 155.166 10.0987L155.12 10.3254L153.409 10.2689L151.698 10.2124L151.735 9.6536C151.792 8.80854 152.111 0.116807 152.086 0.0947203C152.054 0.0669987 149.171 -0.0216065 149.164 0.00488443ZM140.758 2.09993C139.976 2.39839 139.33 2.65158 139.322 2.66259C139.296 2.69711 138.187 8.99644 138.081 9.71008C137.919 10.7913 137.659 13.0176 137.659 13.32C137.659 13.4719 137.636 13.5963 137.606 13.5963C137.577 13.5963 137.501 13.4287 137.437 13.2238C137.148 12.3014 134.286 4.71657 134.187 4.61152C134.18 4.60374 133.882 4.70887 133.527 4.84521C133.171 4.98148 132.592 5.20319 132.24 5.33785C131.676 5.55366 131.603 5.59893 131.63 5.71947C131.663 5.87019 136.077 17.2229 136.118 17.2643C136.132 17.2785 136.893 17.006 137.808 16.6587L139.471 16.0274L140.028 13.2088C140.334 11.6585 140.642 10.0113 140.712 9.54815C140.874 8.4696 141.041 6.84517 141.042 6.32526C141.044 5.65172 141.129 5.70373 141.363 6.52087C141.483 6.93902 141.753 7.76212 141.963 8.34991C142.632 10.2199 144.191 14.1791 144.259 14.1806C144.358 14.1827 146.829 13.2461 146.825 13.2081C146.81 13.0549 142.294 1.58721 142.244 1.57426C142.208 1.56493 141.539 1.80147 140.758 2.09993ZM173.038 4.53761C171.674 4.76269 170.423 5.42904 169.481 6.43246C168.171 7.8267 167.457 9.81164 167.639 11.5546C167.871 13.7867 169.373 15.6422 171.935 16.861C173.203 17.4639 174.792 17.9359 175.555 17.9359H175.866L176.111 16.8234C176.283 16.0413 176.335 15.6977 176.284 15.6663C176.244 15.6418 176.031 15.6047 175.811 15.5839C175.028 15.5098 173.66 15.0333 172.861 14.5569C172.327 14.2381 171.607 13.5408 171.328 13.0701C170.966 12.4621 170.817 11.9262 170.815 11.2318C170.813 10.5201 170.944 9.9779 171.283 9.28907C171.771 8.29919 172.554 7.56289 173.459 7.24221C173.991 7.0536 175.102 7.00522 175.752 7.14234C176.799 7.36353 178.049 8.01803 178.883 8.78153L179.319 9.18071L180.08 8.28099C180.498 7.78621 180.84 7.35595 180.84 7.32492C180.84 7.24448 180.151 6.60773 179.767 6.33271C178.601 5.49828 176.864 4.78335 175.446 4.55413C174.832 4.45484 173.591 4.44629 173.038 4.53761ZM181.252 14.5639C178.933 17.0961 177.027 19.1935 177.016 19.2248C177 19.2723 179.069 21.166 179.171 21.1968C179.189 21.2023 179.985 20.3542 180.939 19.3122C181.894 18.2703 182.704 17.4177 182.739 17.4177C182.903 17.4177 183.652 18.2433 183.849 18.6417C184.281 19.5148 184.171 20.2586 183.321 22.2247C182.832 23.3572 182.596 23.9983 182.596 24.1959C182.596 24.2685 184.867 26.3637 184.989 26.4032C185.014 26.4113 185.132 26.1053 185.252 25.7231C185.371 25.3409 185.748 24.3286 186.089 23.4737C186.935 21.3512 186.969 21.2303 186.978 20.3323C186.986 19.4861 186.869 19.0374 186.467 18.3731C186.249 18.0124 186.246 18.0006 186.386 17.9998C186.6 17.9986 193.529 17.2374 193.553 17.2124C193.565 17.2007 192.958 16.6391 192.205 15.9645L190.836 14.7381L190.211 14.847C189.868 14.907 188.426 15.1688 187.007 15.4289C184.891 15.8168 184.408 15.8874 184.317 15.8215C184.219 15.7502 184.394 15.5368 185.856 13.9395C186.763 12.9486 187.543 12.0902 187.589 12.0319C187.662 11.9393 187.551 11.8168 186.71 11.0609C186.181 10.5851 185.685 10.1427 185.608 10.0779C185.47 9.96022 185.457 9.97311 181.252 14.5639ZM125.461 10.1612C124.408 10.4362 123.4 11.05 121.92 12.3173C120.918 13.1752 119.435 14.6185 119.465 14.7066C119.475 14.7357 121.264 16.8893 123.44 19.4923C126.161 22.7476 127.419 24.2073 127.471 24.168C127.932 23.821 129.661 22.3747 129.661 22.3367C129.661 22.3092 129.068 21.577 128.344 20.7096C127.619 19.8422 126.991 19.0874 126.948 19.0322C126.881 18.9472 126.931 18.8913 127.275 18.6657C127.779 18.3359 128.766 17.4173 129.199 16.8751C129.6 16.3726 129.994 15.6513 130.192 15.0536C130.412 14.3895 130.402 13.4119 130.169 12.8034C129.653 11.4523 128.604 10.4587 127.352 10.1339C126.841 10.0012 126.029 10.0129 125.461 10.1612ZM125.271 12.7764C124.879 12.9061 124.52 13.1038 124.129 13.406C123.724 13.7182 123.093 14.314 123.093 14.3836C123.093 14.4617 125.364 17.1586 125.429 17.1586C125.55 17.1586 126.54 16.3689 126.822 16.0475C127.295 15.5094 127.479 15.0763 127.48 14.5031C127.48 14.1657 127.444 13.9452 127.363 13.7812C127.185 13.4222 126.816 13.0242 126.521 12.8744C126.192 12.7076 125.616 12.6624 125.271 12.7764ZM152.909 18.6552C144.258 19.301 136.351 23.6102 131.112 30.5338C130.896 30.8189 130.44 31.4747 130.098 31.9911C125.596 38.796 124.161 47.2387 126.153 55.202C127.337 59.9348 129.743 64.3449 133.161 68.0456C137.19 72.4084 142.674 75.5453 148.537 76.8412C150.813 77.3443 152.686 77.5427 155.153 77.542C157.013 77.5415 158.227 77.4515 159.835 77.1952C168.045 75.886 175.363 71.2126 179.961 64.3435C185.81 55.6049 186.537 44.5531 181.883 35.1323C180.476 32.2832 178.756 29.8719 176.483 27.5633C173.881 24.919 171.389 23.1288 168.126 21.559C164.628 19.8757 161.076 18.9411 157.071 18.6502C156.027 18.5744 153.958 18.5769 152.909 18.6552ZM114.288 20.3285C113.837 21.0411 113.468 21.6571 113.468 21.6975C113.468 21.8046 116.173 27.0312 116.934 28.3947C117.291 29.0352 117.832 29.9678 118.136 30.4673C118.44 30.9669 118.703 31.402 118.722 31.4342C118.766 31.5109 118.658 31.447 118.183 31.1161C117.272 30.4816 110.539 26.2651 110.506 26.3085C110.33 26.5416 109.047 28.6455 109.068 28.6663C109.132 28.7305 119.796 35.2955 119.809 35.2792C119.919 35.1445 121.623 32.3906 121.643 32.3156C121.679 32.1762 118.951 26.6879 118.277 25.5463C117.983 25.0476 117.512 24.2937 117.231 23.8711C116.95 23.4484 116.719 23.0915 116.719 23.0779C116.719 23.0643 117.019 23.2759 117.386 23.548C117.753 23.82 118.506 24.3399 119.061 24.7033C120.328 25.5341 124.198 27.9226 124.328 27.9549C124.395 27.9714 124.656 27.6143 125.151 26.8294C125.794 25.8115 125.865 25.6713 125.769 25.6053C125.656 25.5275 115.668 19.3649 115.312 19.1539L115.108 19.0327L114.288 20.3285ZM191.115 24.1921C188.065 25.8625 185.629 27.2351 185.64 27.277C185.659 27.3476 187.266 30.2461 187.315 30.2989C187.328 30.3124 188.561 30.3916 190.056 30.4751C193.014 30.6402 195.402 30.6702 196.88 30.5609C197.399 30.5225 197.835 30.501 197.847 30.5132C197.859 30.5254 197.542 30.677 197.142 30.8501C196.742 31.0232 195.938 31.409 195.356 31.7074C194.014 32.3946 190.006 34.5756 189.889 34.6815C189.816 34.7475 189.914 34.9624 190.452 35.9164C190.81 36.5517 191.128 37.0796 191.158 37.0897C191.209 37.1067 202.082 31.1952 202.186 31.0938C202.232 31.0487 200.867 28.5364 200.716 28.3882C200.595 28.27 194.199 28.08 191.642 28.1187L189.482 28.1513L190.932 27.4096C192.114 26.8053 194.018 25.7818 197.731 23.7539C197.883 23.671 198.006 23.5741 198.005 23.5385C198.002 23.434 196.737 21.2161 196.67 21.1985C196.637 21.1897 194.137 22.5368 191.115 24.1921ZM152.421 22.3164C152.332 22.3293 151.996 22.3716 151.674 22.4104C149.527 22.6691 146.757 23.4286 144.689 24.3253C141.476 25.7186 138.738 27.5972 136.292 30.0884C131.831 34.6315 129.267 40.4999 128.95 46.8906C128.796 50.0129 129.243 53.2188 130.254 56.2339C130.541 57.089 131.19 58.6962 131.455 59.2054L131.546 59.3821L131.92 59.1306C132.126 58.9922 135.118 57.2704 138.57 55.3044C142.021 53.3383 144.872 51.7056 144.904 51.6761C144.938 51.6449 144.892 51.3721 144.792 51.0203C143.924 47.9522 144.416 44.8389 146.188 42.1824C146.833 41.2164 148.094 39.9605 149.065 39.3176C150.278 38.5152 151.497 38.0059 153.022 37.6637L153.201 37.6237L153.218 29.9496L153.234 22.2754L152.909 22.2842C152.73 22.2891 152.511 22.3036 152.421 22.3164ZM157.023 28.9629C157.032 32.641 157.047 36.0974 157.055 36.6437L157.071 37.637L157.789 37.8211C161.794 38.848 164.831 42.0533 165.624 46.0914C165.884 47.4164 165.862 49.1003 165.567 50.3327L165.448 50.8305L172.176 54.6723C175.877 56.7854 178.939 58.5224 178.98 58.5325C179.07 58.554 179.67 57.0653 180.049 55.8787C182.08 49.5282 181.576 42.7515 178.627 36.7515C174.769 28.9026 167.203 23.5304 158.418 22.403C157.871 22.3328 157.33 22.2754 157.215 22.2754H157.006L157.023 28.9629ZM106.998 33.4321C106.979 33.5122 106.792 34.3138 106.584 35.2134L106.204 36.8491L108.275 39.3148C109.421 40.6792 110.346 41.8363 110.346 41.9054C110.346 41.9741 110.305 42.0303 110.253 42.0303C110.202 42.0303 109.07 41.7821 107.738 41.4789C106.405 41.1756 105.296 40.9497 105.273 40.9769C105.215 41.0455 104.592 43.77 104.627 43.8004C104.672 43.8384 116.743 46.5642 116.867 46.5642C116.928 46.5642 116.993 46.4985 117.011 46.4184C117.421 44.6762 117.627 43.7542 117.609 43.7366C117.597 43.7246 116.455 43.457 115.072 43.1421C113.689 42.8271 112.544 42.5563 112.527 42.5401C112.467 42.4799 112.758 41.4872 112.926 41.179C113.29 40.5138 114.016 40.0526 114.996 39.8651C115.282 39.8103 115.985 39.7193 116.557 39.663C117.601 39.5602 118.531 39.4049 118.621 39.3183C118.672 39.2696 119.402 36.1957 119.37 36.1642C119.36 36.1541 119.177 36.1867 118.963 36.2365C118.372 36.3738 117.16 36.565 115.679 36.7544C114.157 36.9491 113.38 37.162 112.779 37.5494C112.33 37.8391 111.805 38.3918 111.534 38.8582L111.344 39.1871L109.215 36.2367C108.045 34.614 107.075 33.2863 107.06 33.2863C107.045 33.2863 107.017 33.3519 106.998 33.4321ZM197.756 38.0181C194.417 38.6543 191.673 39.1863 191.658 39.2003C191.638 39.2207 193.26 47.7186 193.296 47.7793C193.307 47.7993 195.681 47.3517 195.698 47.3263C195.705 47.3168 195.467 46.0703 195.17 44.5563C194.873 43.0423 194.63 41.7706 194.629 41.7303C194.626 41.6482 197.3 41.109 197.365 41.1783C197.387 41.2016 197.62 42.3355 197.882 43.6981C198.266 45.6917 198.379 46.1755 198.46 46.1753C198.515 46.1752 199.026 46.0877 199.593 45.981C200.161 45.8742 200.651 45.7869 200.683 45.7869C200.779 45.7869 200.755 45.6363 200.272 43.1491C200.015 41.823 199.823 40.7196 199.845 40.6973C199.916 40.6263 202.195 40.2155 202.239 40.2657C202.262 40.2922 202.508 41.4943 202.784 42.937C203.061 44.3798 203.295 45.5678 203.304 45.577C203.332 45.606 205.614 45.1639 205.656 45.1213C205.679 45.0991 205.342 43.2505 204.909 41.0134C204.475 38.7762 204.12 36.924 204.121 36.8973C204.121 36.8705 204.055 36.8515 203.975 36.855C203.894 36.8586 201.096 37.3819 197.756 38.0181ZM3.17545 44.0517C3.17545 44.1386 4.47912 46.2056 5.2911 47.4062C9.78441 54.0494 14.4423 58.9042 18.2769 60.9406L18.9088 61.2763L20.7155 61.1722C27.1314 60.8028 42.8071 59.6873 64.9223 58.0264C73.8465 57.3562 106.423 54.8653 106.657 54.8353C106.822 54.814 106.895 54.8946 107.598 55.886C108.771 57.5372 110.91 60.3615 112.252 62.0294C114.852 65.2625 116.443 66.9798 118.542 68.8181C119.786 69.9077 121.413 71.1449 122.157 71.5679L122.425 71.7201L123.688 70.5419L124.951 69.3637L124.488 68.8939C123.428 67.8163 121.886 65.4958 120.281 62.5623C118.696 59.6643 118.189 58.4257 117.594 55.989C117.156 54.1968 116.722 51.2988 116.718 50.1445C116.718 49.9387 116.691 49.7288 116.659 49.6782C116.611 49.6023 106.712 49.0991 60.392 46.8178C29.4773 45.2953 3.95667 44.0372 3.67944 44.0221C3.40221 44.0071 3.17545 44.0204 3.17545 44.0517ZM250.212 46.7877C219.068 48.3268 193.572 49.6009 193.554 49.619C193.536 49.6371 193.491 50.0429 193.454 50.5207C193.195 53.8831 192.455 57.1952 191.432 59.574C190.916 60.7743 189.24 63.8435 188.142 65.5989C187.255 67.0177 186.417 68.1485 185.725 68.8628C185.245 69.3577 185.239 69.3684 185.363 69.4845C185.433 69.5494 185.993 70.0733 186.609 70.6487C187.225 71.2241 187.758 71.6949 187.794 71.6949C187.92 71.6949 189.404 70.6577 190.304 69.9401C192.898 67.8727 195.045 65.6438 198.028 61.9207C199.306 60.325 201.45 57.4885 202.614 55.8536L203.351 54.8188L203.98 54.8696C205.803 55.017 237.712 57.4576 243.985 57.9295C266.661 59.6353 281.863 60.7209 288.934 61.1394L291.255 61.2768L291.849 60.9715C295.673 59.0045 300.54 53.9167 305.043 47.1795C306.117 45.5732 307 44.1598 307 44.0481C307 44.007 306.963 43.9769 306.919 43.9813C306.874 43.9857 281.356 45.2486 250.212 46.7877ZM163.425 54.7405C162.474 55.898 161.286 56.8404 159.933 57.5113C158.903 58.0216 158.15 58.282 157.088 58.4951C156.046 58.7043 154.149 58.7048 153.101 58.4962C150.862 58.0509 148.776 56.9187 147.3 55.3475L146.906 54.928L140.446 58.6158C136.892 60.6442 133.861 62.3546 133.709 62.4168C133.557 62.479 133.433 62.55 133.433 62.5746C133.432 62.6425 134.513 64.0702 135.091 64.7645C135.722 65.5237 137.297 67.096 138.082 67.7516C142.163 71.1589 146.796 73.1435 152.226 73.8105C153.547 73.9727 156.679 73.9722 158.014 73.8096C163.121 73.1876 167.677 71.2918 171.606 68.1537C173.109 66.9529 174.777 65.2579 175.898 63.793C176.56 62.929 177.203 61.9584 177.15 61.9067C177.123 61.8808 174.137 60.1679 170.514 58.1002C166.891 56.0326 163.901 54.325 163.869 54.3055C163.837 54.286 163.638 54.4818 163.425 54.7405ZM94.9666 59.4907C73.0794 62.727 43.5233 67.0374 37.4788 67.8744C36.1976 68.0519 35.135 68.2112 35.1176 68.2286C35.0352 68.3107 35.8355 69.3568 36.7185 70.3214C38.503 72.2707 42.3721 75.2859 46.2921 77.7821C47.2146 78.3696 47.4545 78.4954 47.589 78.4623C47.8305 78.4029 107.751 61.9182 107.924 61.8637C108.056 61.8218 107.91 61.642 106.368 59.9553C104.947 58.4 104.639 58.0943 104.499 58.0996C104.407 58.1031 100.117 58.7291 94.9666 59.4907ZM203.861 59.9107C202.949 60.9102 202.194 61.7535 202.182 61.7848C202.171 61.816 202.274 61.8716 202.41 61.9084C202.546 61.9451 216.179 65.6957 232.706 70.243L262.754 78.511L263.693 77.9131C269.281 74.3567 273.459 70.8409 275.02 68.3817L275.129 68.2099L274.563 68.1325C268.58 67.3139 241.395 63.3556 212.274 59.0628C208.657 58.5295 205.657 58.0933 205.608 58.0933C205.559 58.0934 204.773 58.9113 203.861 59.9107ZM109.631 66.2537C108.355 66.7181 96.55 70.8967 90.9672 72.8601C77.4303 77.6212 67.0117 81.2063 63.3748 82.355C61.7322 82.8739 61.8171 82.7709 62.3381 83.6126C62.7093 84.212 63.7454 85.2568 64.4996 85.7919C66.426 87.1588 69.5754 88.503 72.596 89.2472L73.4414 89.4555L93.209 79.2784C104.081 73.6809 113.003 69.0751 113.035 69.0431C113.069 69.0088 112.539 68.3792 111.74 67.5063C110.996 66.693 110.371 66.0225 110.351 66.0164C110.33 66.0102 110.007 66.117 109.631 66.2537ZM198.46 67.4976C197.706 68.3197 197.113 69.0153 197.142 69.0432C197.171 69.0712 206.102 73.6767 216.988 79.2776L236.781 89.4611L237.506 89.2815C239.367 88.8199 241.81 87.9267 243.466 87.1014C245.761 85.9583 247.406 84.5664 248.109 83.174C248.235 82.9229 248.259 82.8251 248.198 82.8042C248.152 82.7886 246.724 82.3195 245.026 81.7618C238.211 79.5246 223.02 74.2371 204.284 67.5806C202.209 66.8436 200.359 66.1871 200.171 66.1216L199.831 66.0027L198.46 67.4976ZM115.058 72.0671C103.988 79.212 90.1559 88.0444 85.7973 90.7517C85.0819 91.196 84.498 91.5856 84.4997 91.6174C84.5055 91.7262 85.356 92.3884 85.8534 92.6715C87.273 93.4792 89.368 94.1337 91.8883 94.5568C93.0502 94.7519 95.0268 94.9887 95.7896 95.0243L96.2223 95.0445L107.814 84.6813C114.189 78.9815 119.507 74.2298 119.631 74.1218L119.858 73.9256L118.243 72.6321C117.355 71.9207 116.582 71.3047 116.525 71.2632C116.439 71.2007 116.186 71.3391 115.058 72.0671ZM192.04 72.5559C190.707 73.6245 190.351 73.9403 190.415 73.9992C190.46 74.0406 195.781 78.7959 202.239 84.5664L213.981 95.0584L214.692 95.0044C219.07 94.6725 222.924 93.6671 224.819 92.3623C225.271 92.0507 225.766 91.6041 225.707 91.5605C225.691 91.5491 225.094 91.1785 224.378 90.7371C220.751 88.4985 212.29 83.1051 199.114 74.6324C196.234 72.781 193.849 71.2486 193.813 71.227C193.776 71.2054 192.979 71.8034 192.04 72.5559ZM122.797 78.7386C122.822 78.8722 123.776 83.8875 124.918 89.8837C126.06 95.88 126.994 100.798 126.994 100.814C126.994 100.829 128.356 100.841 130.02 100.841H133.045L133.011 100.696C132.922 100.308 129.726 83.651 129.726 83.5729C129.726 83.4972 130.34 83.483 133.615 83.483H137.504L139.149 92.0165C140.053 96.7099 140.808 100.616 140.827 100.696L140.86 100.841H143.844C146.021 100.841 146.829 100.822 146.829 100.768C146.829 100.694 142.689 78.9138 142.623 78.6415L142.588 78.4957H132.67H122.753L122.797 78.7386ZM170.796 78.5767C170.781 78.6213 169.83 83.6126 168.68 89.6686C167.531 95.7245 166.579 100.716 166.564 100.76C166.543 100.824 167.168 100.841 169.546 100.841H172.555L174.167 92.4698C175.055 87.8655 175.809 83.9599 175.844 83.7907L175.908 83.483H179.805C181.948 83.483 183.701 83.5025 183.701 83.5262C183.701 83.55 182.955 87.4379 182.043 92.166C181.131 96.8941 180.385 100.78 180.385 100.802C180.385 100.824 181.739 100.841 183.395 100.841H186.405L188.511 89.7819C189.669 83.6992 190.63 78.6715 190.646 78.6091C190.673 78.5015 190.17 78.4957 180.748 78.4957C172.864 78.4957 170.816 78.5124 170.796 78.5767ZM153.015 83.3697C152.978 83.4854 151.717 87.4341 150.213 92.1445C148.71 96.8548 147.479 100.739 147.479 100.775C147.479 100.819 148.36 100.841 150.11 100.841H152.741L152.808 100.598C152.845 100.465 153.101 99.5031 153.376 98.4611L153.876 96.5665H156.462H159.049L159.308 97.3924C159.717 98.6966 160.355 100.781 160.355 100.813C160.355 100.828 161.614 100.841 163.152 100.841C164.69 100.841 165.948 100.827 165.948 100.809C165.948 100.792 164.774 97.3304 163.339 93.1178C161.904 88.9052 160.555 84.9412 160.342 84.3088L159.954 83.1592H156.518H153.082L153.015 83.3697ZM155.998 87.673C155.845 88.3075 155.475 89.7206 155.176 90.8134C154.877 91.9062 154.633 92.8317 154.633 92.8699C154.633 92.9178 155.201 92.9394 156.458 92.9394C158.166 92.9394 158.281 92.9322 158.247 92.8261C158.091 92.3294 156.689 87.7238 156.547 87.2397C156.448 86.9013 156.346 86.6008 156.322 86.5719C156.297 86.5431 156.151 87.0386 155.998 87.673ZM0.0384862 101.988C0.119385 102.004 0.23644 102.003 0.29861 101.987C0.36078 101.971 0.294578 101.958 0.15151 101.959C0.0084419 101.959 -0.0424123 101.973 0.0384862 101.988ZM0.753046 101.99C0.940856 102.003 1.24813 102.003 1.43587 101.99C1.62368 101.977 1.47001 101.966 1.09446 101.966C0.718905 101.966 0.565302 101.977 0.753046 101.99Z" fill="#295CC9"/>
</svg>
